# ProBuilder 5.0.6
# https://unity3d.com/unity/features/worldbuilding/probuilder
# 01/04/2023 11:57:59

mtllib ./Column.mtl
o Column

g Column
v -1.676956 -36.35 0.4721444
v -1.74185 -36.35 0
v -1.676956 36.35 0.4721444
v -1.74185 36.35 0
v -1.03185 -36.35 0
v -0.9932842 -36.35 0.2805886
v -1.03185 36.35 0
v -0.9932842 36.35 0.2805886
v -1.487084 -36.35 0.909272
v -1.487084 36.35 0.909272
v -0.8804467 -36.35 0.5403674
v -0.8804467 36.35 0.5403674
v -1.186318 -36.35 1.278963
v -1.186318 36.35 1.278963
v -0.7017055 -36.35 0.7600694
v -0.7017055 36.35 0.7600694
v -0.7969642 -36.35 1.553799
v -0.7969642 36.35 1.553799
v -0.4703181 -36.35 0.9234006
v -0.4703181 36.35 0.9234006
v -0.3478982 -36.35 1.713397
v -0.3478982 36.35 1.713397
v -0.2034445 -36.35 1.018248
v -0.2034445 36.35 1.018248
v 0.1275737 -36.35 1.74592
v 0.1275737 36.35 1.74592
v 0.07912159 -36.35 1.037576
v 0.07912159 36.35 1.037576
v 0.5941889 -36.35 1.648957
v 0.5941889 36.35 1.648957
v 0.3564243 -36.35 0.9799514
v 0.3564243 36.35 0.9799514
v 1.01734 -36.35 1.429697
v 1.01734 36.35 1.429697
v 0.6078973 -36.35 0.8496487
v 0.6078973 36.35 0.8496487
v 1.365644 -36.35 1.104404
v 1.365644 36.35 1.104404
v 0.8148894 -36.35 0.6563315
v 0.8148894 36.35 0.6563315
v 1.613269 -36.35 0.6972016
v 1.613269 36.35 0.6972016
v 0.9620495 -36.35 0.4143369
v 0.9620495 36.35 0.4143369
v 1.74185 -36.35 0.2382915
v 1.74185 36.35 0.2382915
v 1.038463 -36.35 0.1416132
v 1.038463 36.35 0.1416132
v 1.74185 -36.35 -0.2382913
v 1.74185 36.35 -0.2382913
v 1.038463 -36.35 -0.1416132
v 1.038463 36.35 -0.1416132
v 1.613269 -36.35 -0.697202
v 1.613269 36.35 -0.697202
v 0.9620492 -36.35 -0.4143372
v 0.9620492 36.35 -0.4143372
v 1.365644 -36.35 -1.104404
v 1.365644 36.35 -1.104404
v 0.8148894 -36.35 -0.6563315
v 0.8148894 36.35 -0.6563315
v 1.01734 -36.35 -1.429698
v 1.01734 36.35 -1.429698
v 0.607897 -36.35 -0.849649
v 0.607897 36.35 -0.849649
v 0.5941888 -36.35 -1.648957
v 0.5941888 36.35 -1.648957
v 0.3564243 -36.35 -0.9799514
v 0.3564243 36.35 -0.9799514
v 0.1275747 -36.35 -1.74592
v 0.1275747 36.35 -1.74592
v 0.07912219 -36.35 -1.037575
v 0.07912219 36.35 -1.037575
v -0.3478985 -36.35 -1.713397
v -0.3478985 36.35 -1.713397
v -0.2034447 -36.35 -1.018247
v -0.2034447 36.35 -1.018247
v -0.7969642 -36.35 -1.553799
v -0.7969642 36.35 -1.553799
v -0.4703181 -36.35 -0.9234009
v -0.4703181 36.35 -0.9234009
v -1.186319 -36.35 -1.278963
v -1.186319 36.35 -1.278963
v -0.7017059 -36.35 -0.7600691
v -0.7017059 36.35 -0.7600691
v -1.487084 -36.35 -0.9092722
v -1.487084 36.35 -0.9092722
v -0.8804464 -36.35 -0.5403674
v -0.8804464 36.35 -0.5403674
v -1.676956 -36.35 -0.4721439
v -1.676956 36.35 -0.4721439
v -0.9932845 -36.35 -0.2805884
v -0.9932845 36.35 -0.2805884

vt 0.2394016 -36.35
vt -0.2371817 -36.35
vt 0.2394016 36.35
vt -0.2371817 36.35
vt 0.1405039 -36.35
vt -0.1427227 -36.35
vt 0.1405039 36.35
vt -0.1427227 36.35
vt 0.2415384 -36.35
vt -0.2350449 -36.35
vt 0.2415384 36.35
vt -0.2350449 36.35
vt 0.1383655 -36.35
vt -0.1448611 -36.35
vt 0.1383655 36.35
vt -0.1448611 36.35
vt 0.2434343 -36.35
vt -0.2331489 -36.35
vt 0.2434343 36.35
vt -0.2331489 36.35
vt 0.1364713 -36.35
vt -0.1467555 -36.35
vt 0.1364713 36.35
vt -0.1467555 36.35
vt 0.2449499 -36.35
vt -0.2316335 -36.35
vt 0.2449499 36.35
vt -0.2316335 36.35
vt 0.1349545 -36.35
vt -0.148272 -36.35
vt 0.1349545 36.35
vt -0.148272 36.35
vt 0.2459711 -36.35
vt -0.2306124 -36.35
vt 0.2459711 36.35
vt -0.2306124 36.35
vt 0.1339341 -36.35
vt -0.1492928 -36.35
vt 0.1339341 36.35
vt -0.1492928 36.35
vt 0.2464221 -36.35
vt -0.2301609 -36.35
vt 0.2464221 36.35
vt -0.2301609 36.35
vt 0.1334827 -36.35
vt -0.1497436 -36.35
vt 0.1334827 36.35
vt -0.1497436 36.35
vt -0.2310557 -36.35
vt -0.2310557 36.35
vt 0.1343771 -36.35
vt -0.1488497 -36.35
vt 0.1343771 36.35
vt -0.1488497 36.35
vt 0.2442478 -36.35
vt -0.2323354 -36.35
vt 0.2442478 36.35
vt -0.2323354 36.35
vt 0.1356572 -36.35
vt -0.1475693 -36.35
vt 0.1356572 36.35
vt -0.1475693 36.35
vt 0.2425256 -36.35
vt -0.234058 -36.35
vt 0.2425256 36.35
vt -0.234058 36.35
vt 0.1373793 -36.35
vt -0.1458476 -36.35
vt 0.1373793 36.35
vt -0.1458476 36.35
vt 0.2404904 -36.35
vt -0.2360926 -36.35
vt 0.2404904 36.35
vt -0.2360926 36.35
vt 0.1394146 -36.35
vt -0.1438119 -36.35
vt 0.1394146 36.35
vt -0.1438119 36.35
vt 0.2382917 -36.35
vt -0.2382911 -36.35
vt 0.2382917 36.35
vt -0.2382911 36.35
vt 0.1416128 -36.35
vt -0.1416137 -36.35
vt 0.1416128 36.35
vt -0.1416137 36.35
vt 0.2360928 -36.35
vt -0.240491 -36.35
vt 0.2360928 36.35
vt -0.240491 36.35
vt 0.1438129 -36.35
vt -0.1394139 -36.35
vt 0.1438129 36.35
vt -0.1394139 36.35
vt 0.2340577 -36.35
vt -0.2425255 -36.35
vt 0.2340577 36.35
vt -0.2425255 36.35
vt 0.1458469 -36.35
vt -0.1373797 -36.35
vt 0.1458469 36.35
vt -0.1373797 36.35
vt 0.2323355 -36.35
vt -0.2442481 -36.35
vt 0.2323355 36.35
vt -0.2442481 36.35
vt 0.1475693 -36.35
vt -0.1356576 -36.35
vt 0.1475693 36.35
vt -0.1356576 36.35
vt 0.2310559 -36.35
vt -0.2455272 -36.35
vt 0.2310559 36.35
vt -0.2455272 36.35
vt 0.1488497 -36.35
vt -0.1343767 -36.35
vt 0.1488497 36.35
vt -0.1343767 36.35
vt 0.2303112 -36.35
vt -0.2462711 -36.35
vt 0.2303112 36.35
vt -0.2462711 36.35
vt 0.1495922 -36.35
vt -0.1336339 -36.35
vt 0.1495922 36.35
vt -0.1336339 36.35
vt -0.1334827 -36.35
vt -0.1334827 36.35
vt 0.2306129 -36.35
vt 0.2306129 36.35
vt 0.1492911 -36.35
vt 0.1492911 36.35
vt 0.2316343 -36.35
vt -0.2449496 -36.35
vt 0.2316343 36.35
vt -0.2449496 36.35
vt 0.1482725 -36.35
vt -0.1349546 -36.35
vt 0.1482725 36.35
vt -0.1349546 36.35
vt 0.2331477 -36.35
vt -0.2434347 -36.35
vt 0.2331477 36.35
vt -0.2434347 36.35
vt 0.1467564 -36.35
vt -0.1364697 -36.35
vt 0.1467564 36.35
vt -0.1364697 36.35
vt 0.2350451 -36.35
vt -0.241539 -36.35
vt 0.2350451 36.35
vt -0.241539 36.35
vt 0.1448599 -36.35
vt -0.1383671 -36.35
vt 0.1448599 36.35
vt -0.1383671 36.35
vt 0.2371819 -36.35
vt -0.2394009 -36.35
vt 0.2371819 36.35
vt -0.2394009 36.35
vt 0.1427232 -36.35
vt -0.1405032 -36.35
vt 0.1427232 36.35
vt -0.1405032 36.35
vt -1.74185 0
vt -1.676956 0.4721444
vt -1.03185 0
vt -0.9932842 0.2805886
vt 1.676956 0.4721444
vt 1.74185 0
vt 0.9932842 0.2805886
vt 1.03185 0
vt -1.487084 0.909272
vt -0.8804467 0.5403674
vt 1.487084 0.909272
vt 0.8804467 0.5403674
vt -1.186318 1.278963
vt -0.7017055 0.7600694
vt 1.186318 1.278963
vt 0.7017055 0.7600694
vt -0.7969642 1.553799
vt -0.4703181 0.9234006
vt 0.7969642 1.553799
vt 0.4703181 0.9234006
vt -0.3478982 1.713397
vt -0.2034445 1.018248
vt 0.3478982 1.713397
vt 0.2034445 1.018248
vt 0.1275737 1.74592
vt 0.07912159 1.037576
vt -0.1275737 1.74592
vt -0.07912159 1.037576
vt 0.5941889 1.648957
vt 0.3564243 0.9799514
vt -0.5941889 1.648957
vt -0.3564243 0.9799514
vt 1.01734 1.429697
vt 0.6078973 0.8496487
vt -1.01734 1.429697
vt -0.6078973 0.8496487
vt 1.365644 1.104404
vt 0.8148894 0.6563315
vt -1.365644 1.104404
vt -0.8148894 0.6563315
vt 1.613269 0.6972016
vt 0.9620495 0.4143369
vt -1.613269 0.6972016
vt -0.9620495 0.4143369
vt 1.74185 0.2382915
vt 1.038463 0.1416132
vt -1.74185 0.2382915
vt -1.038463 0.1416132
vt 1.74185 -0.2382913
vt 1.038463 -0.1416132
vt -1.74185 -0.2382913
vt -1.038463 -0.1416132
vt 1.613269 -0.697202
vt 0.9620492 -0.4143372
vt -1.613269 -0.697202
vt -0.9620492 -0.4143372
vt 1.365644 -1.104404
vt 0.8148894 -0.6563315
vt -1.365644 -1.104404
vt -0.8148894 -0.6563315
vt 1.01734 -1.429698
vt 0.607897 -0.849649
vt -1.01734 -1.429698
vt -0.607897 -0.849649
vt 0.5941888 -1.648957
vt 0.3564243 -0.9799514
vt -0.5941888 -1.648957
vt -0.3564243 -0.9799514
vt 0.1275747 -1.74592
vt 0.07912219 -1.037575
vt -0.1275747 -1.74592
vt -0.07912219 -1.037575
vt -0.3478985 -1.713397
vt -0.2034447 -1.018247
vt 0.3478985 -1.713397
vt 0.2034447 -1.018247
vt -0.7969642 -1.553799
vt -0.4703181 -0.9234009
vt 0.7969642 -1.553799
vt 0.4703181 -0.9234009
vt -1.186319 -1.278963
vt -0.7017059 -0.7600691
vt 1.186319 -1.278963
vt 0.7017059 -0.7600691
vt -1.487084 -0.9092722
vt -0.8804464 -0.5403674
vt 1.487084 -0.9092722
vt 0.8804464 -0.5403674
vt -1.676956 -0.4721439
vt -0.9932845 -0.2805884
vt 1.676956 -0.4721439
vt 0.9932845 -0.2805884

vn -0.9629173 0 0.2697967
vn -1 0 -6.768565E-08
vn 1 0 -3.609902E-07
vn 0.9629173 0 -0.2697965
vn -0.8544194 0 0.5195841
vn 0.8544194 0 -0.519584
vn -0.6825531 0 0.730836
vn 0.6825531 0 -0.7308361
vn -0.4600652 0 0.8878852
vn 0.4600654 0 -0.887885
vn -0.203456 0 0.9790841
vn 0.203456 0 -0.9790841
vn 0.06824245 0 0.9976688
vn -0.06824259 0 -0.9976688
vn 0.3348796 0 0.9422609
vn -0.3348795 0 -0.942261
vn 0.5766803 0 0.8169699
vn -0.5766802 0 -0.81697
vn 0.7757114 0 0.6310878
vn -0.7757114 0 -0.6310878
vn 0.9172114 0 0.3984009
vn -0.9172114 0 -0.3984008
vn 0.9906859 0 0.1361667
vn -0.9906859 0 -0.1361667
vn 0.990686 0 -0.1361666
vn -0.9906859 0 0.1361668
vn 0.9172114 0 -0.398401
vn -0.9172113 0 0.3984011
vn 0.7757113 0 -0.6310879
vn -0.7757115 0 0.6310876
vn 0.5766802 0 -0.8169699
vn -0.5766801 0 0.8169701
vn 0.3348795 0 -0.9422609
vn -0.3348794 0 0.942261
vn 0.06824239 0 -0.9976688
vn -0.0682425 0 0.9976688
vn -0.2034558 0 -0.9790841
vn 0.2034555 0 0.9790842
vn -0.4600649 0 -0.8878853
vn 0.460065 0 0.8878852
vn -0.6825532 0 -0.7308359
vn 0.6825536 0 0.7308355
vn -0.8544195 0 -0.5195838
vn 0.8544194 0 0.5195839
vn -0.9629173 0 -0.2697967
vn 0.9629173 0 0.2697967
vn 0 -1 0
vn 0 1 0

usemtl ProBuilderDefault
f 3/3/1 4/4/2 2/2/2 1/1/1
f 7/7/3 8/8/4 6/6/4 5/5/3
f 10/11/5 3/12/1 1/10/1 9/9/5
f 8/15/4 12/16/6 11/14/6 6/13/4
f 14/19/7 10/20/5 9/18/5 13/17/7
f 12/23/6 16/24/8 15/22/8 11/21/6
f 18/27/9 14/28/7 13/26/7 17/25/9
f 16/31/8 20/32/10 19/30/10 15/29/8
f 22/35/11 18/36/9 17/34/9 21/33/11
f 20/39/10 24/40/12 23/38/12 19/37/10
f 26/43/13 22/44/11 21/42/11 25/41/13
f 24/47/12 28/48/14 27/46/14 23/45/12
f 30/43/15 26/44/13 25/42/13 29/41/15
f 28/39/14 32/48/16 31/46/16 27/37/14
f 34/35/17 30/50/15 29/49/15 33/33/17
f 32/53/16 36/54/18 35/52/18 31/51/16
f 38/57/19 34/58/17 33/56/17 37/55/19
f 36/61/18 40/62/20 39/60/20 35/59/18
f 42/65/21 38/66/19 37/64/19 41/63/21
f 40/69/20 44/70/22 43/68/22 39/67/20
f 46/73/23 42/74/21 41/72/21 45/71/23
f 44/77/22 48/78/24 47/76/24 43/75/22
f 50/81/25 46/82/23 45/80/23 49/79/25
f 48/85/24 52/86/26 51/84/26 47/83/24
f 54/89/27 50/90/25 49/88/25 53/87/27
f 52/93/26 56/94/28 55/92/28 51/91/26
f 58/97/29 54/98/27 53/96/27 57/95/29
f 56/101/28 60/102/30 59/100/30 55/99/28
f 62/105/31 58/106/29 57/104/29 61/103/31
f 60/109/30 64/110/32 63/108/32 59/107/30
f 66/113/33 62/114/31 61/112/31 65/111/33
f 64/117/32 68/118/34 67/116/34 63/115/32
f 70/121/35 66/122/33 65/120/33 69/119/35
f 68/125/34 72/126/36 71/124/36 67/123/34
f 74/121/37 70/122/35 69/120/35 73/119/37
f 72/125/36 76/128/38 75/127/38 71/123/36
f 78/130/39 74/114/37 73/112/37 77/129/39
f 76/132/38 80/126/40 79/124/40 75/131/38
f 82/135/41 78/136/39 77/134/39 81/133/41
f 80/139/40 84/140/42 83/138/42 79/137/40
f 86/143/43 82/144/41 81/142/41 85/141/43
f 84/147/42 88/148/44 87/146/44 83/145/42
f 90/151/45 86/152/43 85/150/43 89/149/45
f 88/155/44 92/156/46 91/154/46 87/153/44
f 4/159/2 90/160/45 89/158/45 2/157/2
f 92/163/46 7/164/3 5/162/3 91/161/46
f 5/167/47 6/168/47 1/166/47 2/165/47
f 8/171/48 7/172/48 4/170/48 3/169/48
f 6/168/47 11/174/47 9/173/47 1/166/47
f 12/176/48 8/171/48 3/169/48 10/175/48
f 11/174/47 15/178/47 13/177/47 9/173/47
f 16/180/48 12/176/48 10/175/48 14/179/48
f 15/178/47 19/182/47 17/181/47 13/177/47
f 20/184/48 16/180/48 14/179/48 18/183/48
f 19/182/47 23/186/47 21/185/47 17/181/47
f 24/188/48 20/184/48 18/183/48 22/187/48
f 23/186/47 27/190/47 25/189/47 21/185/47
f 28/192/48 24/188/48 22/187/48 26/191/48
f 27/190/47 31/194/47 29/193/47 25/189/47
f 32/196/48 28/192/48 26/191/48 30/195/48
f 31/194/47 35/198/47 33/197/47 29/193/47
f 36/200/48 32/196/48 30/195/48 34/199/48
f 35/198/47 39/202/47 37/201/47 33/197/47
f 40/204/48 36/200/48 34/199/48 38/203/48
f 39/202/47 43/206/47 41/205/47 37/201/47
f 44/208/48 40/204/48 38/203/48 42/207/48
f 43/206/47 47/210/47 45/209/47 41/205/47
f 48/212/48 44/208/48 42/207/48 46/211/48
f 47/210/47 51/214/47 49/213/47 45/209/47
f 52/216/48 48/212/48 46/211/48 50/215/48
f 51/214/47 55/218/47 53/217/47 49/213/47
f 56/220/48 52/216/48 50/215/48 54/219/48
f 55/218/47 59/222/47 57/221/47 53/217/47
f 60/224/48 56/220/48 54/219/48 58/223/48
f 59/222/47 63/226/47 61/225/47 57/221/47
f 64/228/48 60/224/48 58/223/48 62/227/48
f 63/226/47 67/230/47 65/229/47 61/225/47
f 68/232/48 64/228/48 62/227/48 66/231/48
f 67/230/47 71/234/47 69/233/47 65/229/47
f 72/236/48 68/232/48 66/231/48 70/235/48
f 71/234/47 75/238/47 73/237/47 69/233/47
f 76/240/48 72/236/48 70/235/48 74/239/48
f 75/238/47 79/242/47 77/241/47 73/237/47
f 80/244/48 76/240/48 74/239/48 78/243/48
f 79/242/47 83/246/47 81/245/47 77/241/47
f 84/248/48 80/244/48 78/243/48 82/247/48
f 83/246/47 87/250/47 85/249/47 81/245/47
f 88/252/48 84/248/48 82/247/48 86/251/48
f 87/250/47 91/254/47 89/253/47 85/249/47
f 92/256/48 88/252/48 86/251/48 90/255/48
f 91/254/47 5/167/47 2/165/47 89/253/47
f 7/172/48 92/256/48 90/255/48 4/170/48

